<svg xmlns="http://www.w3.org/2000/svg" width="35" height="34" viewBox="0 0 35 34">
  <defs>
    <style>
      .cls-1 {
        fill: #dadada;
        fill-rule: evenodd;
      }
    </style>
  </defs>
  <path id="facebook_copy" data-name="facebook copy" class="cls-1" d="M17.54,0A16.869,16.869,0,1,0,34.266,16.868,16.8,16.8,0,0,0,17.54,0Zm0,29.519A12.652,12.652,0,1,1,30.084,16.868,12.6,12.6,0,0,1,17.54,29.52Zm0.551-6.053-2.647.008-0.008-6.347-1.567-.017v-2.4l1.584-.009,0.049-1.31c0-1.8.616-2.931,2.722-2.931l1.935,0.008L20.166,12.6l-1.024.074c-0.82,0-1.119.279-1.119,0.854l0,1.192h2.1L19.666,17.11H18.083Z"/>
</svg>
